PathFileType	3	(X/Y/Z)	results
DataRate	CameraRate	NumFrames	NumMarkers	Units	OrigDataRate	OrigDataStartFrame	OrigNumFrames
30.0	30.0	4	85	mm	30.0	75	199
Frame#	Time	head			nose			neck			shoulder_r			elbow_r			wrist_r			shoulder_l			elbow_l			wrist_l			hip_r			knee_r			ankle_r			hip_l			knee_l			ankle_l			heel_r			heel_l			mtoe_r			ltoe_r			mtoe_l			ltoe_l			asis_l			asis_r			psi_r			psi_l			mhnd_r			lhnd_r			mhnd_l			lhnd_l			l_lat_knee			r_med_wrist			l_lat_ankle			r_med_ankle			r_lat_knee			xiphoid			l_med_ankle			r_med_knee			l_med_elbow			navel			r_lat_elbow			r_lat_wrist			l_med_wrist			l_lat_elbow			l_med_knee			r_med_elbow			r_lat_ankle			l_lat_wrist			chin			T10			r_eye			l_eye			l_ear			r_ear			spinal_cord_8			spinal_cord_12			spinal_cord_27			spinal_cord_33			up_arm_r_0			up_arm_r_5			up_arm_l_0			up_arm_l_5			front_torso_11			front_torso_7			front_torso_4			front_torso_1			front_torso_10			thigh_r_2			thigh_r_3			thigh_l_1			thigh_l_5			shank_l_0			shank_l_4			shank_r_1			shank_r_2			foot_r_1			foot_r_3			foot_r_5			foot_r_6			foot_r_7			foot_l_1			foot_l_7			foot_l_0			foot_l_4			foot_l_5			foot_l_6			
		X1	Y1	Z1	X2	Y2	Z2	X3	Y3	Z3	X4	Y4	Z4	X5	Y5	Z5	X6	Y6	Z6	X7	Y7	Z7	X8	Y8	Z8	X9	Y9	Z9	X10	Y10	Z10	X11	Y11	Z11	X12	Y12	Z12	X13	Y13	Z13	X14	Y14	Z14	X15	Y15	Z15	X16	Y16	Z16	X17	Y17	Z17	X18	Y18	Z18	X19	Y19	Z19	X20	Y20	Z20	X21	Y21	Z21	X22	Y22	Z22	X23	Y23	Z23	X24	Y24	Z24	X25	Y25	Z25	X26	Y26	Z26	X27	Y27	Z27	X28	Y28	Z28	X29	Y29	Z29	X30	Y30	Z30	X31	Y31	Z31	X32	Y32	Z32	X33	Y33	Z33	X34	Y34	Z34	X35	Y35	Z35	X36	Y36	Z36	X37	Y37	Z37	X38	Y38	Z38	X39	Y39	Z39	X40	Y40	Z40	X41	Y41	Z41	X42	Y42	Z42	X43	Y43	Z43	X44	Y44	Z44	X45	Y45	Z45	X46	Y46	Z46	X47	Y47	Z47	X48	Y48	Z48	X49	Y49	Z49	X50	Y50	Z50	X51	Y51	Z51	X52	Y52	Z52	X53	Y53	Z53	X54	Y54	Z54	X55	Y55	Z55	X56	Y56	Z56	X57	Y57	Z57	X58	Y58	Z58	X59	Y59	Z59	X60	Y60	Z60	X61	Y61	Z61	X62	Y62	Z62	X63	Y63	Z63	X64	Y64	Z64	X65	Y65	Z65	X66	Y66	Z66	X67	Y67	Z67	X68	Y68	Z68	X69	Y69	Z69	X70	Y70	Z70	X71	Y71	Z71	X72	Y72	Z72	X73	Y73	Z73	X74	Y74	Z74	X75	Y75	Z75	X76	Y76	Z76	X77	Y77	Z77	X78	Y78	Z78	X79	Y79	Z79	X80	Y80	Z80	X81	Y81	Z81	X82	Y82	Z82	X83	Y83	Z83	X84	Y84	Z84	X85	Y85	Z85	
75	2.5	-3017.640593234207	1656.0559069915407	-872.7469318636939	-3076.7149073180967	1462.8933936750132	-977.4262335591462	-2991.1311209777055	1322.8200382986483	-843.8446948493356	-2889.721393606672	1270.3911265236745	-998.4205944743566	-2749.0636911446604	1035.002823036683	-1017.3556664994568	-2785.200859650682	816.2897997542447	-1090.174459873568	-3067.001217984472	1271.7187248582147	-711.7557127111334	-3198.8709006966715	1046.4541950156486	-647.4766047112698	-3332.220708925189	906.6582792845508	-776.649175389565	-2928.4698699675664	812.5299930108033	-920.9952520035043	-3101.8497288576646	491.3607237280283	-942.6293387361792	-3185.0446549267813	121.14259598759791	-962.8295990057968	-3046.794532846629	815.4846637200549	-762.5945725987866	-2924.008790713692	469.5350246150478	-775.0063158789493	-2788.5086724131206	112.14905074440584	-755.7276524749797	-3190.5209209414825	58.523695525118875	-956.9759213186077	-2756.9736132590715	43.88992266789091	-744.4894241773039	-3369.717924891695	147.182765277267	-1015.1726880717093	-3313.0983238401723	103.35096951578127	-1056.130917752416	-2944.8324503327494	85.70072273999772	-832.4038632599147	-2929.401394830906	48.46558892742699	-750.2376932067647	-3113.501047293164	880.3443763760573	-758.7903732314223	-2937.073336841313	872.9363925957571	-988.2927289629604	-2867.1386037964353	892.6555217682514	-814.8686953815268	-2931.6286729873323	893.8339241103279	-739.9396214532549	-2766.508822590103	746.6656075766964	-1103.7673767280392	-2815.487320758187	742.687333059105	-1125.082214372462	-3377.9411038075623	847.4513003012639	-791.4409275583457	-3377.676259147884	867.0337739446235	-841.1621896805085	-2928.092209927526	460.44319353862966	-728.3515641359718	-2756.22076114088	820.346878520286	-1087.8333488723163	-2789.7052125494724	98.68377874006673	-703.1970781127205	-3213.3370745678753	116.67961289249656	-938.6393556891599	-3097.7923718707543	482.3980901452581	-982.3577538646366	-3052.852057500468	1148.8506385818566	-907.4584696070857	-2791.120332320616	97.39930394175317	-786.9066686291035	-3116.151237516875	491.5047622997904	-905.7129149230522	-3163.4696014327765	1038.3454590788435	-640.5915659738732	-3054.846177826564	928.3154481363018	-913.9679672471142	-2749.8564539694535	1045.8029265399862	-1057.9617225845461	-2814.8360708576397	826.3277890521205	-1081.8683504934693	-3341.815569405951	903.8670023304676	-745.899191739488	-3226.8790696211854	1076.274272034516	-647.3753027738388	-2941.9450328709677	463.57384022175825	-817.9907900437378	-2754.092146628588	1036.3044273167043	-978.9660083841776	-3171.4992839346396	102.17664569269009	-1006.5500410931327	-3321.7709042608576	927.852473982297	-796.901392835187	-3054.2025211064374	1383.7986340473876	-962.2519034506582	-2906.4560379574064	1168.2461246418964	-777.3308181803953	-3052.6685997048253	1499.9947003899078	-998.0997356032073	-3110.659435496479	1492.1403435699121	-953.0439911108253	-3087.869945148381	1487.6247338099492	-832.606262784837	-2941.9684577186817	1503.9703113185496	-942.2257014077264	-2957.5046696019986	1384.2500950037163	-811.4924509816027	-2913.331011146279	1268.6634044266243	-775.8961292165311	-2901.9326406961527	1015.784669538508	-797.0773713599765	-2915.8315481948243	1158.0331618131638	-785.8573875159962	-2858.801122608839	1132.7311094378795	-1028.145067693446	-2769.59087831577	1151.5355061506345	-1010.584923134618	-3118.5519576608244	1242.2119746513158	-694.1797083944795	-3128.016344457551	1095.491838614362	-643.5637459789424	-2991.3036259288124	959.3389314124129	-927.7037156092749	-3070.6560808998847	1060.3370989765465	-928.2875027527668	-3106.7227292573825	1192.0959071545058	-858.138961765189	-3082.1676563551473	989.3625992198727	-833.4564458453457	-3009.2169398380615	1237.4760871466465	-983.0218131452169	-3027.6082548344434	640.0021176982464	-916.8327516995209	-3021.6299575787557	604.438763854893	-1005.8503226226252	-2959.0966340285386	569.9170174624429	-815.7155116256257	-3034.4024771809804	710.1239275888524	-672.6671999374148	-2842.6319755713866	193.87496066168353	-696.8700632792169	-2866.8444901319363	330.6769223937348	-815.2362762859213	-3110.9892774862737	329.4572899731313	-1001.920768061269	-3166.9449567633865	301.2140171270774	-920.1937454831676	-3354.768245234642	128.5162262495621	-1029.8056280255494	-3336.4905465685792	117.35493348280187	-1046.6013214799339	-3302.7716598641355	123.93248657415192	-983.1197342620161	-3282.5031152503775	115.13792329967808	-1012.5371777906482	-3273.7133119458026	92.28136881295976	-1034.9599609041752	-2943.0679739847824	60.31365062899017	-785.6220955404867	-2858.384723478068	64.93177501657256	-726.0604725141163	-2942.1366078630363	56.012934601663716	-770.5236136287599	-2943.6680063812682	65.45273597564494	-803.9507768443942	-2895.466575465406	67.71984460958613	-773.7913802038721	-2857.4494962391827	78.98168761371099	-785.6941694274308	
76	2.533333333333333	-3049.4038674904327	1648.7443831410922	-884.8653221651958	-3103.545057835626	1457.3326132505376	-995.2716317405911	-3024.2424500851453	1314.6997927468026	-856.7930586077044	-2912.7187946428403	1265.8421668261833	-997.553526782146	-2780.9123342128146	1025.6371276201576	-1019.4481782274498	-2806.937805865757	807.2470015215752	-1097.3730511328683	-3101.771332263821	1267.3625048698498	-728.4821959010399	-3241.392285673064	1044.3176655466218	-673.504797186332	-3374.253427740901	918.469319997075	-816.7553932625426	-2958.863773712974	805.3554648295035	-926.4985962383413	-3133.412195602284	484.7617190825071	-947.4107608791861	-3223.208290215569	115.57022177902643	-942.3899982626288	-3087.4922045137055	807.3762636738611	-776.3291109156166	-2955.5508496234024	464.45455164156726	-781.124013644925	-2795.272912787948	117.91612586928495	-755.0704981696937	-3235.7223927542846	51.6174513306731	-934.9583482335006	-2757.9777716409953	53.15135791511719	-742.700890962368	-3384.8214415827015	177.9518882529173	-1006.846763298548	-3336.1122348441518	122.37740357985399	-1043.5001663289952	-2951.250732434841	73.09152076920522	-826.462378532059	-2930.0745626870985	40.22891751573386	-743.7129295468005	-3154.1404759993666	872.4070900901826	-776.4424768522089	-2962.8029395795065	866.3369700515013	-993.7120037647319	-2904.5534810421846	884.4207600753994	-815.8480572114339	-2973.8991116048837	885.1835618703356	-745.3829918857126	-2785.3303694506017	738.6254706391383	-1111.7219871693337	-2833.507811015546	733.3050412447587	-1134.5182458549655	-3421.2039928641666	861.9962375732214	-837.2749497125436	-3418.56581635315	885.0207700267922	-885.4273977676386	-2961.3732678848146	455.69926527081884	-734.6809025341312	-2778.2036247452997	812.3001117834758	-1094.1173314751388	-2794.0096254603745	106.13873301399873	-702.1374874491819	-3254.6444501890983	113.9658494600202	-922.0248089791064	-3123.8568502627363	472.5742551848905	-985.2905240273733	-3084.1784056082606	1140.3149443358689	-920.9736184543143	-2797.770195534013	102.00394257141882	-785.6821437990162	-3152.760148432859	487.96339650475505	-913.0258407702656	-3206.336903800921	1034.8289467895327	-666.6133702929216	-3087.359086465077	919.7310324697328	-924.8130709383801	-2780.6842519181073	1037.289457738042	-1059.8250736090235	-2837.143950102594	816.0425828136155	-1089.7425186784474	-3385.020930504497	913.8323338026474	-786.6227977482439	-3268.432775178252	1075.0038056088326	-672.5680381991713	-2971.124668025627	458.0845989922768	-824.8813063682132	-2786.460121876794	1026.345059891889	-981.1145601827403	-3204.358150354743	92.091858316317	-981.735901207611	-3362.4445316049864	940.6838651348364	-835.0750159182351	-3083.189409871507	1377.8061636467387	-979.3267191628613	-2943.7198886218926	1160.4701286972925	-784.5684915978389	-3077.6268865906227	1494.2778098305398	-1013.857282268088	-3138.7244794308	1486.8309010602918	-973.0372410194964	-3124.4738141816406	1480.9533358534973	-851.3517004924839	-2971.062154473774	1496.2417032404464	-950.3566082021794	-2991.7082078079206	1376.3300855908487	-823.7130364554769	-2949.9768650827655	1260.937964547133	-784.702182856542	-2939.3301679059227	1007.7438212915923	-802.183489632326	-2952.7667667755127	1150.2069503821285	-793.3848600754211	-2886.6529259270205	1127.729104078573	-1029.728674914789	-2797.060200020972	1142.712134268663	-1010.5171166611475	-3154.407364036305	1238.9256556924854	-712.4248995906289	-3169.0481496747475	1090.8705330346104	-667.2178576829558	-3023.0505894157395	950.1846728003848	-936.028069698827	-3101.612889849874	1051.6537412849625	-941.4847958278002	-3139.942372444259	1184.5177692524323	-874.7015247547857	-3117.899544930872	981.9691088423018	-846.3973507734994	-3036.558908799183	1227.6972099669533	-995.5727852741434	-3060.783865197004	634.441115996213	-923.0066286786239	-3042.865847252682	591.7732656742731	-1007.1673041129757	-2991.1056884329855	563.9533001795969	-823.9854312749981	-3076.5711783790907	702.7596664008058	-685.3484597930783	-2853.1551887022338	197.6758863922356	-697.0989979406173	-2890.161773708048	328.5454243469995	-818.8169492803646	-3138.8283063921326	317.8266107023058	-991.1721838013864	-3206.151096458123	298.7695769337344	-915.591113912324	-3373.2163635970887	156.3498832714364	-1020.4383444627074	-3356.5145132068483	141.3072599479168	-1035.7847355842423	-3327.8041212872636	140.41709041101294	-969.5649467369332	-3307.5475228365813	127.18334537330817	-997.2792470022064	-3302.18533760512	102.84711070920513	-1019.2214114262308	-2945.753789635324	49.51318163527881	-779.0282543001209	-2860.501111852704	64.49513699333745	-722.0397565894463	-2944.013277194752	45.810902395805655	-763.8430146867213	-2947.3307027954083	53.979456117994296	-797.4748402321528	-2898.8626796234025	62.02834726150572	-768.7664266435752	-2862.4899930012616	76.66036298085605	-782.0606207116342	
77	2.5666666666666664	-3081.0572318016966	1643.110279547172	-898.7844143674702	-3128.351684433516	1451.5543462763023	-1012.0489124137247	-3057.911196648459	1311.0652233539622	-868.7915693932259	-2938.5646012218594	1264.4308028527992	-997.6964326392953	-2817.1006587526213	1019.1208880604792	-1022.602978312792	-2826.5686920435296	799.6785940887279	-1101.3385746555916	-3134.822770568208	1262.5371471946282	-745.3946161763713	-3280.8390930701257	1041.453505827526	-699.9327372892744	-3405.9616757032513	923.5519643270688	-856.3110869811369	-2988.3388080266236	796.3810318850284	-927.5364831577695	-3164.9796821898494	476.8941509318672	-949.7917593911977	-3244.5610649806395	106.37730152667734	-921.9533656481449	-3117.166016344879	801.8972083927063	-777.6253316246666	-3015.9263022957475	448.02568517727923	-798.7908423724153	-2806.8235613568854	131.57071455494062	-747.9088363010197	-3258.307695691602	41.60256572004234	-913.0953725598011	-2761.3811960663365	73.21487791734197	-730.832264751557	-3396.0710746991376	184.20116213536812	-976.7016005517899	-3352.7798774325984	126.49345247959009	-1016.7050329920411	-2954.711554721725	62.88618414819851	-816.182863904443	-2931.1162388538073	41.98974630514132	-730.26166675433	-3187.290708008514	862.9933536136122	-782.1862511018979	-2995.5004125522537	852.1665552568431	-998.870836459138	-2938.6689217625094	885.9128603735514	-822.8396604969827	-3008.0839956971026	887.8221017047123	-752.4647638059805	-2799.9447918207584	732.8288190700175	-1115.6201463946736	-2847.371579163968	724.1420896704789	-1138.9500162911731	-3452.37049033266	868.7791505377469	-882.0166816065013	-3446.1677378300974	893.5227570236772	-928.9743979390576	-3037.316706429586	435.01763926657725	-759.1661846389433	-2798.307078915386	806.7678314999913	-1097.7593659729675	-2808.4692498838726	121.14322413242861	-694.7038961728877	-3274.492677566222	105.0059353428886	-899.4197236480246	-3147.820135587835	460.3563125677803	-982.9948796556542	-3115.8031870802956	1136.6278929814916	-934.682946661903	-2804.087023115803	114.88698777510892	-778.0861699430917	-3190.2430712810947	483.8178156186278	-920.1915106084087	-3246.321780381798	1031.23545190052	-691.5331036543405	-3119.3939755408596	916.0414831179459	-937.9787503576482	-2816.8710804695424	1031.0105706236475	-1062.9106108620115	-2857.407211319426	806.2618634470259	-1094.0143191380891	-3418.7779015515407	918.0033034348352	-827.1499692647612	-3307.3408944198272	1072.6200613477554	-699.8611536090561	-3012.2110841584768	452.05632814081923	-844.7014597324837	-2822.15690087916	1019.813793620002	-984.20115952895	-3227.813389711245	81.52316556122597	-961.4052185919234	-3392.60071174849	946.2042872051114	-872.9514453998099	-3108.876879108628	1372.0645570582562	-994.8688601622192	-2980.5856536397177	1156.8657331161726	-793.0925742479807	-3101.4259215381635	1488.5191601854392	-1029.0997593638526	-3164.8185182729203	1481.023853758378	-991.9534657476366	-3157.772003928213	1475.2484097478018	-869.6342567564668	-2998.7998070351177	1490.66072043229	-959.4181336867573	-3026.503181850193	1372.718817373897	-834.6824982677194	-2986.5786158602223	1257.3474972049005	-793.7657440452152	-2975.915611875222	1004.0754826959002	-810.0694074016628	-2989.316497765585	1146.5972054697384	-802.2159994497362	-2918.6327000624296	1125.5649189349147	-1030.996182948697	-2828.273143215467	1136.7046586598776	-1012.7893604700979	-3188.6555512080504	1234.883078891976	-732.1913123631094	-3208.050101203763	1086.58201804994	-689.6590261444984	-3054.628440182108	946.3048167347416	-946.8296976189887	-3132.6690778763104	1047.9460154532526	-955.5766033589723	-3173.175213856084	1181.1083011229337	-890.6993108590545	-3152.7381564946404	978.5955440350184	-860.969153669052	-3065.1587713169333	1223.6635708937333	-1007.6777850803016	-3093.8642058166115	627.6345872042879	-926.7356388948331	-3060.600224136211	575.8309008442812	-1000.4547389299992	-3024.6829744977913	558.2552366421165	-831.4927715202042	-3147.602788744775	684.317665109337	-709.8755419374811	-2881.302595455726	202.31556396479465	-697.70214487262	-2927.1620522955377	323.405618903036	-826.3322027519591	-3168.9884835013027	308.01445121915134	-985.5031488791655	-3230.5156533186932	290.9729833436645	-904.6822204582925	-3386.5378228537897	162.38587018761564	-991.5092228896777	-3371.356254028634	146.73404058186773	-1007.7967715501137	-3342.3562457170283	139.884429663809	-942.05316509929	-3323.563321041406	126.35524746664245	-970.6421741573386	-3320.552750486885	102.80476688887381	-993.8537070060349	-2947.287599942699	45.516461310503104	-766.3900107818596	-2864.7581787063887	75.81785514256721	-711.5184599653268	-2945.3376990686766	43.753234135233	-750.8846351414871	-2949.118633048175	47.68489466717098	-785.2223237030487	-2902.107096723238	64.03356735810816	-757.6407486351018	-2867.340938096435	80.86998209847548	-772.5287694931365	
78	2.6	-3108.1503951573914	1639.1085913446636	-913.9723307502524	-3150.9612774035427	1447.1213179961053	-1028.2850709508941	-3087.974798387247	1308.0896228004026	-878.9525068844966	-2961.492648495306	1264.9242324491356	-1000.4969586644099	-2853.2050551442917	1013.1634854815559	-1021.4994119864225	-2843.4892863715213	793.5934072002576	-1099.847626580867	-3168.9356138752646	1259.5319883774446	-763.0707476886173	-3316.206528867976	1037.625689672486	-726.5413411598772	-3433.3512247915696	919.9473712712302	-889.1437889290889	-3020.8138939798732	795.3260595917785	-932.7732998006071	-3189.8908813706184	471.13003457346895	-943.4831697879068	-3252.133200251965	97.52885854454152	-912.840660812449	-3160.1813697125954	795.6155057108391	-792.4990894511872	-3075.760150369187	436.76838817240747	-828.2852505930047	-2833.0597923247806	157.10839015971047	-731.6234434599135	-3262.028117068365	32.19282670528801	-903.4355385523668	-2782.041572873813	107.59927057445026	-705.5603307687584	-3413.5706430075675	169.48441215266445	-942.7387691050271	-3374.507887792011	114.24597527492418	-989.9340905655397	-2963.0961846397404	60.411731495414486	-804.3560694547374	-2945.3030478969968	52.43521064088063	-714.9377739830868	-3231.124162688996	855.3050796915066	-801.1759674015601	-3024.051751444068	852.1504676906155	-1003.5716478140436	-2980.7869916875297	884.0875694422338	-823.3945447738685	-3055.109829356484	883.35708368398	-758.2001741007334	-2811.819947433839	728.546622103417	-1111.9990254418403	-2856.8864799332314	716.9199092263397	-1138.510710618412	-3478.295762904499	865.1263993558052	-917.2376731890805	-3469.957017524027	890.0807724793407	-963.7510251559995	-3102.309448069166	424.174917907916	-792.4665091016076	-2816.0404432256555	802.4353754509564	-1094.3551402696232	-2840.126268323065	149.10829913960129	-678.4419620785791	-3278.248712361334	94.65843394710905	-886.0957960928639	-3172.4627235911025	453.9468909584736	-976.1948989859934	-3145.3672465750715	1134.6514904872	-947.8499635335876	-2824.138516899227	139.58092972625647	-760.0787737530065	-3214.8817422702173	478.3238651591993	-913.7385082397941	-3282.1137784208718	1027.46435627355	-716.4994779369849	-3153.931092595113	914.1923015667453	-950.4047359575056	-2850.4976917285085	1025.1668388359121	-1061.6828935547142	-2875.1108831481474	798.2311350916681	-1094.6935483159268	-3447.5180319086294	914.2380850183375	-860.6460750602497	-3342.7961342956824	1068.700335016782	-727.5728846262106	-3063.19814930812	445.94491953196103	-871.4175433697773	-2859.9246593346043	1014.0049159307887	-983.3564663373479	-3240.7416935187875	74.0356717372651	-954.947253529055	-3419.294461660052	942.7110570388563	-905.0424252986211	-3133.909051901812	1367.5289690860816	-1009.119256901934	-3019.6194892263516	1152.593022132548	-797.4944247351435	-3122.398145406602	1483.4943725871788	-1043.8823125913484	-3188.193419282965	1477.347601551632	-1010.8997837312959	-3189.2483847673066	1472.74084693766	-888.3328107495482	-3024.5245630719833	1484.8070583609685	-967.6506042782461	-3057.5050977367855	1369.200765732808	-843.0626290084952	-3023.180029514483	1253.1810648517476	-799.0181973271459	-3017.4164014444723	999.6360450958167	-813.4378358353396	-3027.951656766961	1142.475462298178	-807.1441477187816	-2948.0335262398326	1125.2677618160035	-1033.7356410871907	-2858.090241930144	1131.1572729264974	-1011.4656845099432	-3223.2562450058035	1231.5988482272326	-752.7726065156202	-3244.1925313537295	1082.925957176742	-712.3202645804746	-3088.0184097602582	942.8881686088336	-954.9707687590518	-3162.8660803377566	1046.2614095264378	-969.4477173322479	-3204.523256961404	1180.7175095683053	-908.0617152130103	-3190.933576357365	977.9671140781142	-876.1153530861988	-3087.851065925117	1220.0453255873213	-1017.6216942253153	-3122.138357001201	624.168684976788	-925.6937637280631	-3088.275484793093	570.9070582964071	-998.0893790434392	-3072.3868559931675	551.4345773714516	-851.5246949524347	-3206.6613929749765	675.4187192022702	-740.214100534208	-2922.531197733279	218.51467078086924	-695.612217196296	-2967.71096147487	325.30245774981915	-836.5616424493248	-3193.7101947819274	302.9116308898864	-982.2092373572664	-3241.7049631232985	282.1564771118026	-893.4750696009424	-3405.5035048445807	148.30111453900307	-959.238609009837	-3392.335125472752	133.5401623486182	-977.9322474603675	-3353.4544186864314	127.09585651230343	-917.4599314550504	-3338.669989873307	114.7741537922373	-948.8150033646614	-3338.246552200868	91.68402240340109	-972.6714586897418	-2958.242358339738	49.71242233028479	-752.4126795793651	-2886.207800876678	97.29575598999604	-695.0801773166232	-2957.577383663908	49.9148314025603	-736.7013907561288	-2958.5237641003923	49.570594257928995	-771.4550400163752	-2917.013661973857	75.38609290825843	-742.3246713181516	-2883.5514397065303	95.37906240608665	-756.2661441110097	
